<svg xmlns="http://www.w3.org/2000/svg" xml:space="preserve" width="60" height="60" style="enable-background:new 0 0 1190.6 841.9" viewBox="436.66 252.68 236.46 284.74"><path
fill="#1d71b8" d="M512.7 265.3c.4 7.5 1.5 14.5 1.1 21.5-1.2 21-6.1 41.4-11 61.9-1.3 5.6-1.8 11.5-2.7 17.2.5.2 1 .4 1.5.5 1.4-2 3.1-3.9 4.2-6 8.4-16.2 16.3-32.8 20-50.8 2.9-14 4.4-28.3 1.6-42.6-1.3-6.8 3.6-13.9 10.5-14.1 11.1-.3 22.2-.3 33.3 0 7.3.2 11.5 7.1 11.1 14.2-.6 11.5-1 23.2.2 34.6 2.2 21.2 11.8 40 21.3 58.8 1.1 2.1 2.7 4 4.1 6l1.8-.6c-1.2-7-2.2-14-3.8-20.8-4.9-21.6-10.2-43.1-10.2-65.4 0-4.6 1-9.2 1.6-14.2 11.8 3.3 21 9.3 29 17.4 11.3 11.6 18.7 25.6 24.5 40.5 3.4 8.6 6.1 17.5 9.4 26.2.9 2.4 2.5 4.9 4.5 6.4 5.7 4.6 8.5 10.2 8.4 17.5-.1 6.1-.2 12.2 0 18.4.3 6.3-2.4 10.7-7.6 14.1-11.5 7.5-24.5 11-37.7 13.6-31.3 6.2-63 6.7-94.8 5.6-20-.7-40.1-2.2-59.5-7.6-9.8-2.8-19.1-7.1-28.4-11.2-6.1-2.7-8.8-7.9-8.4-14.9.3-6.1.1-12.3.1-18.4-.1-7.1 3-12.6 8.3-17.2 1.8-1.6 3.6-3.7 4.3-6 6.2-18.5 12.4-37.1 23.3-53.6 9.4-14.4 21.4-25.9 40-31zM523.2 534.5c-.5-3.1-1-5.6-1.3-8.2-.3-2.5.5-6.2-.8-7.4-2.8-2.4-6.6-3.9-10.3-5-1.4-.4-3.6.7-5.1 1.7-9.4 6.8-9.2 6.7-18.2.1-3.4-2.5-4.1-4.8-2.4-8.4 1-2.2 1.5-4.5 2.6-6.7s.2-3.4-.9-5.4c-4.4-8.3-11.2-8.1-18.6-5.6-3.3 1.2-4.4 0-5.9-2.7-5.9-10.7-5.8-10.6 2.2-19.5 1.3-1.4 1.7-4.3 1.4-6.3-1-6.2-3.3-10.7-11.2-11.2-7.4-.5-7.3-1.5-7.6-9.4-.2-8.5 0-7.9 7.4-11.7 6.5-3.4 11.7.9 17.5 1.5 4.6.5 9.1 2 13.6 2.6 3.3.5 4.6 2.2 4.9 5.3 3 32.8 33 61.1 71.9 56.6 28.4-3.3 49.8-24.7 55.1-51.1.2-.9.8-1.9.7-2.8-1.1-6.6 2.6-8.3 8.3-8.8 6.8-.6 13.7-3 20.4-2.6 4.9.3 9.7 3.7 14.5 5.9.5.2.7 1.8.6 2.7-.3 3.8-.6 7.7-1.2 11.5-.1.8-1.2 1.7-2.1 2.1-1.4.6-3.1 1.4-4.6 1.2-9.5-.9-11.1 6-12.8 12.8-.2.9.1 2 .5 2.9.3.7 1 1.2 1.6 1.8 8.1 8.4 7.9 8.3 2.3 18.3-1.8 3.2-3.8 4.2-7.1 3.4-.5-.1-1-.1-1.4-.3-7.5-3.8-13-1.2-16.8 5.7-.8 1.5-1.3 3.8-.8 5.4 4.1 11.9 3.3 14.1-8.1 19.6-.8.4-2.2.3-3-.1-1.4-.7-2.8-1.7-3.9-2.8-4.9-5.2-9.7-4.8-16-1.9-6.7 3.1-3.5 8.6-4.7 12.8-1 3.4-1.5 5.4-5.4 5.6-2.5.1-5 1.5-7.5 1.3-1.8-.1-3.9-1.3-5.4-2.6-1.2-1.1-2-2.9-2.6-4.6-1.7-5.4-5.4-6.3-10.6-6.4-5.1-.1-7.5 1.8-9.6 5.9-4 8-4.2 7.9-12.9 6-1.9-.3-4.2-.7-6.7-1.2z"/></svg>