<svg xmlns="http://www.w3.org/2000/svg" fill="#1d71b8" xml:space="preserve" width="50" height="50" style="enable-background:new 0 0 1190.6 841.9" viewBox="500.2 320.92 199.81 199.68"><path d="M686.4 520.6H500.2V346.2h25.1c0-6.1-.1-11.7 0-17.3.1-5.5 1.9-7.5 7.4-7.7 7-.2 14-.2 21-.1 5.6.1 7.6 2.2 7.9 8 .2 5.3 0 10.6 0 16.4h62.9c0-5.3-.1-10.6 0-15.8.2-6.5 2.3-8.7 8.8-8.7 6.7-.1 13.3-.1 20 0 6.1.1 8.4 2.4 8.6 8.5.1 5.3 0 10.6 0 16.3h24.4c.1 58.5.1 116.5.1 174.8zm-174.2-12.1h8.5l147.4.6c6.8 0 6.9 0 6.9-6.8-.2-38.3-.5-76.6-.8-114.9 0-1.1-.3-2.2-.4-3.7H512.3c-.1 41.5-.1 82.7-.1 124.8zm24.9-149.9h12.6v-14.7c0-11.5 0-11.5-11.6-10.7-.3 0-.5.3-1 .6v24.8zm112 0v-24.8h-11.7v24.8h11.7z"/><path d="M586.7 420.7h-24.2v-24.4h24.2v24.4zM624 396.3v24.3h-24.3v-24.3H624zM661.9 396.3v24.2h-24.4v-24.2h24.4zM524.5 495.5v-24.1h24.4v24.1h-24.4zM586.8 471.3v24.4h-24.2v-24.4h24.2zM599.8 471.2h24.1v24.3h-24.1v-24.3zM548.9 458.6c-7.5 0-14.6.1-21.7-.1-1 0-2.6-1.9-2.7-3-.2-6.9-.1-13.9-.1-21.2h24.5v24.3zM562.5 434.1h24.3v24h-24.3v-24zM623.9 458.1h-24.3v-23.9h24.3v23.9zM637.4 457.8v-23.5h24.1v23.5h-24.1z"/><ellipse cx="649.7" cy="446" rx="37.1" ry="31.2" style="fill:none;stroke:#e30613;stroke-width:7;stroke-miterlimit:10" transform="rotate(-25.227 649.714 446.07)"/></svg>