<svg xmlns="http://www.w3.org/2000/svg" xml:space="preserve" width="50" height="50" style="enable-background:new 0 0 1190.6 841.9" viewBox="328.34 150.49 524 537.71"><path d="M667.9 360.7c35.9 0 66.7-.7 97.5.3 15.7.5 32 2.1 46.7 7.1 37.6 12.6 50.3 50.9 31.9 86.2-4.9 9.5-4.7 21.9-5.6 33.1-.8 9.5 4.4 22.7-.3 28.2-19 22.6-14.1 53-25.6 75.3-12.8 24.8-25.1 50.5-39.8 74.3-7.2 11.7-27.4 21-42.1 21.7-54.5 2.4-109.2.8-163.9.6-1.8 0-3.6-.8-5.2-.5-32.2 5.7-56-26.1-91.7-16.4-30.5 8.3-64.7 3.6-97.2 3.7-35.1.1-43.8-8.7-44-43.9-.3-71.4-.4-142.8 0-214.2.2-37.5 8.2-46 44.9-45.4 34.1.5 68.2 3.4 102.4 4.1 5.7.1 12.9-4.1 17.2-8.5 45.3-46.4 86.1-94.9 97.6-162.6 6.1-35.9 31.4-54.9 59.3-53.2 29.2 1.8 54.6 25.1 53.8 61.3-.8 35.3-11.5 70.6-19.2 105.5-3 13.4-9.9 25.9-16.7 43.3zm115.8 97.4c5.3-3.2 10.2-4.6 12.6-7.8 7.6-10.6 19.8-22.1 19.3-32.7-.4-7.3-18.1-15.7-29.4-20-9.4-3.6-20.8-2.6-31.4-2.7-29.1-.3-58.2.4-87.3-.2-31.7-.7-42.9-17.1-32.2-46.9 6.6-18.2 16.7-35.5 21.2-54.1 6.5-27.1 10.9-55.1 12.4-82.9.4-7.9-12.3-16.5-18.9-24.8-8.1 6.6-17 12.6-24.1 20.1-3.2 3.4-3.1 9.9-4.1 15.1-9 46.1-29.9 86.4-60.7 121.6-18.7 21.2-38.9 41.2-56.1 63.5-7.4 9.6-12.6 23.4-13 35.5-1.4 50.3 1.5 100.7-1.3 150.8-1.7 30.5 13.6 44.4 37.8 52.2 15.7 5 32.8 7.2 49.3 7.6 41.4 1 82.9.4 124.4.3 49.2-.1 49.9-.8 48.9-50.4 0-1.6 1-3.3 1.6-4.9 34-15.1 34-15.1 14.4-68.8 46.9-16.9 46.9-16.9 16.6-70.5zm-419-52.7v233.8h89.6V405.4h-89.6z" style="fill:#009640"/></svg>