<svg xmlns="http://www.w3.org/2000/svg" xml:space="preserve" id="Layer_1" width="60" height="60" style="enable-background:new 0 0 1190.6 841.9" version="1.1" viewBox="493.6 278.6 252 230.3"><style>.st0{fill:#be1622}</style><path d="M745.5 382.5c-3.5 6-7.1 11.9-10.6 17.9-5.1 8.7-10.1 17.5-15.2 26.3-1.2 2.1-2.4 4.2-3.8 6.8-10-17.3-19.8-34.2-29.9-51.8 7.9 2.8 15.1 5.4 22.4 8 .5-36.2-27.4-83.4-79.3-93.7-60.4-12-109.3 29.5-118.4 79.7-10.9 59.9 33.5 116.9 98.3 118.3v14.9c-4.9-.3-9.8-.2-14.6-.8-9.1-1.2-18.1-3.4-26.7-6.8-11.1-4.3-21.3-10.1-30.6-17.5-13.4-10.6-23.8-23.7-31.4-39-5.3-10.7-9-21.8-10.5-33.7-.5-3.8-.7-7.7-1.1-11.5-.1-.6-.3-1.1-.5-1.7v-8.5c.4-3.1.5-6.2 1.1-9.2 1.4-7.3 2.6-14.7 4.8-21.9 4.1-13.8 11.2-26.2 20.3-37.4 6.3-7.9 13.7-14.6 21.8-20.6 7.3-5.4 15.2-9.8 23.7-13.2 7.8-3.2 15.9-5.6 24.2-6.9 3.2-.5 6.4-1.1 9.6-1.6h19.7c1.4.2 2.9.4 4.3.6 9.7 1.5 19.2 3.7 28.4 7.4 13.5 5.4 25.7 13 36.2 23 4.8 4.6 9.2 9.7 13.3 14.9 7.7 9.8 13.3 20.8 17.3 32.6 3.5 10.4 5.3 21.1 5.9 32.2 2.3-.8 4.4-1.6 6.6-2.4 4.9-1.7 9.9-3.3 14.8-5-.1.2-.1.4-.1.6z" class="st0"/><path d="M605.5 389c29-25.8 52.9-43.4 59.7-43.1-1.2 2.7-1.9 5.4-3.4 7.6-5.9 8.3-11.8 16.5-18 24.5-6.4 8.2-13.2 16.3-20 24.2-3.6 4.2-7.2 8.6-11.5 11.9-4.9 3.7-11.9 2.7-15.8-2.5-6.5-8.5-12.7-17.2-18.6-26.1-2.3-3.5-4.7-7.2-4.7-11.8 0-2.2.9-2.7 3-2.2 7.5 1.8 13.5 6.4 19.8 10.5 3 2.2 6.2 4.6 9.5 7zM531.7 399.5h-10.9c-3.1 0-5.1-1.9-5.3-4.7-.3-4.9 1.2-7.4 4.8-7.5 7.9-.2 15.8-.1 23.6 0 2.9 0 5.1 3 5 6.3-.1 3.3-2.4 5.9-5.4 5.9h-11.8zM601.2 317.2c0-3.6.2-7.3-.1-10.9-.3-3.6 2.3-5.4 5.3-5.8 4.4-.5 6.9 2.4 6.9 5.4.1 7.5.1 15.1 0 22.6 0 3-2.4 6-7.1 5.6-3.4-.3-5.1-2.1-5.1-6 .1-3.6.1-7.3.1-10.9z" class="st0"/></svg>