<?xml version="1.0" encoding="UTF-8"?><svg id="Layer_2" xmlns="http://www.w3.org/2000/svg" xmlns:xlink="http://www.w3.org/1999/xlink" viewBox="0 0 393.51 453.39"><defs><style>.cls-1{fill:#fff;}.cls-2{clip-path:url(#clippath);}.cls-3{fill:none;}.cls-4{fill:#f0f5fc;}.cls-5{fill:#de0c15;}</style><clipPath id="clippath"><rect class="cls-3" x="76.99" y="68.02" width="224.51" height="225.14"/></clipPath></defs><g id="Layer_1-2"><g id="Restaurant"><g id="Union_1-2"><path class="cls-5" d="m196.75,444.77l-32.39-56.69-.98-1.72-1.95-.36c-43.6-8.09-83.41-31.35-112.11-65.5-14.26-16.97-25.38-36.06-33.06-56.75-7.95-21.4-11.98-43.94-11.98-66.99,0-25.99,5.09-51.2,15.13-74.92,9.69-22.92,23.57-43.51,41.25-61.19,17.68-17.68,38.26-31.56,61.18-41.25,23.73-10.04,48.93-15.13,74.92-15.13s51.2,5.09,74.92,15.13c22.92,9.69,43.51,23.57,61.18,41.25,17.68,17.68,31.56,38.27,41.25,61.19,10.04,23.73,15.12,48.93,15.12,74.92,0,23.04-4.03,45.58-11.98,66.99-7.68,20.68-18.8,39.77-33.06,56.75-28.69,34.15-68.51,57.42-112.11,65.5l-1.95.36-.98,1.72-32.4,56.69Z"/><path class="cls-4" d="m196.75,436.15l30.66-53.63,3.9-.73c42.63-7.91,81.56-30.66,109.61-64.05,13.94-16.6,24.82-35.26,32.33-55.48,7.77-20.93,11.71-42.97,11.71-65.5,0-25.41-4.97-50.06-14.79-73.26-9.48-22.41-23.05-42.54-40.34-59.83-17.29-17.28-37.41-30.86-59.83-40.33-23.2-9.81-47.84-14.79-73.26-14.79s-50.06,4.97-73.25,14.79c-22.41,9.48-42.54,23.05-59.82,40.33-17.29,17.29-30.86,37.42-40.34,59.83-9.81,23.2-14.79,47.84-14.79,73.26,0,22.54,3.94,44.57,11.71,65.5,7.51,20.22,18.38,38.88,32.33,55.48,28.06,33.4,66.99,56.14,109.61,64.05l3.9.73,30.65,53.63m0,17.24l-36.11-63.19C69.23,373.24,0,293.08,0,196.76,0,88.09,88.09,0,196.75,0s196.76,88.09,196.76,196.76c0,96.32-69.23,176.48-160.65,193.44l-36.11,63.19Z"/></g></g><g id="Group_3309"><g class="cls-2"><g id="Group_3294"><path id="Path_7" class="cls-1" d="m301.5,68.02c-.14,15.11-.32,30.21-.4,45.34-.08,12.69-5,17.78-17.43,17.81h-21.13c-8.03,1-15.35-4.71-16.35-12.74-.13-1.04-.15-2.09-.05-3.13-.11-2.42,0-4.85,0-7.47-6.82-1.85-14.11-.18-19.45,4.45-27.73,25.21-56.22,49.62-83.78,74.98-6.81,7.9-17.41,11.42-27.59,9.15-2.59-.41-5.19-.68-7.81-.79,6.61-5.99,12.28-11.12,18.02-16.25,31.24-27.82,62.61-55.49,93.72-83.47,3.79-3.79,9.09-5.67,14.42-5.13,3.86.33,7.76.06,11.86.06v-22.82h55.97Zm-25.58,45.46l.8.17c-.2,2.46-.16,4.94.14,7.4.31,1.46,2.15,3.89,2.93,3.76,4.43-.77,11.22-.96,12.56-3.66,1.58-5.4,2.1-11.05,1.54-16.64,0-.31-.91-.96-1.4-.96-4.67-.52-9.39-.33-14,.58-1.71.56-1.71,6.09-2.57,9.36m-5.3-27.7c-.08-1.44-.08-2.89,0-4.33.5-4.65-1.03-6.66-6.17-6.48-14.04.51-11.6-1.63-11.87,11.75-.2,2.26-.14,4.53.18,6.78.39,1.44,1.41,2.63,2.78,3.23,11.2,3.01,15.06.12,15.06-10.96m0,28.23c-.1-1.64-.1-3.29,0-4.94.57-4.71-1.76-5.99-6.08-6.1-12.19-.34-12.3-.36-11.98,11.81.21,7.49,3.76,10.27,12.09,10.44,7.7.17,5.64-5.2,5.93-9.36.04-.62,0-1.23,0-1.85m23.87-38.03c-16.93-3.23-17.96-2.42-17.78,13.16,0,.62.06,1.24,0,1.86-.34,4.49,1.58,6.15,6.18,6.03,13.82-.36,11.31,1.24,11.57-11.5.06-3.09,0-6.18,0-9.55"/><path id="Path_8" class="cls-1" d="m98.74,293.17c-3.55-1.53-7.01-3.24-10.38-5.13-10.24-6.71-14.2-19.79-9.41-31.05,4.77-11.56,17.08-18.09,29.33-15.55,11.55,2.4,19.88,12.51,20.04,24.3.81,12.04-7.12,22.93-18.82,25.87-1.14.44-2.24.96-3.3,1.56h-7.46Zm17.81-26.6c-.13-7.59-6.37-13.66-13.96-13.58-7.61.14-13.73,6.33-13.78,13.94.48,7.56,6.6,13.53,14.17,13.82,7.63-.25,13.66-6.55,13.57-14.18"/><path id="Path_9" class="cls-1" d="m220.64,293.16c-5.01-2.24-9.78-4.99-14.22-8.21-8.57-7.83-10.53-20.58-4.71-30.63,6.78-12.53,22.43-17.19,34.96-10.42,7.61,4.12,12.65,11.77,13.42,20.39,1.13,11.75-5.85,22.77-16.96,26.77-1.71.62-3.35,1.39-5.02,2.1h-7.47Zm3.56-40.21c-7.56.13-13.66,6.21-13.82,13.77-.07,7.73,6.14,14.05,13.87,14.12,7.73.07,14.05-6.14,14.12-13.87,0-.2,0-.4,0-.6-.34-7.55-6.6-13.48-14.16-13.43"/><path id="Path_10" class="cls-1" d="m208.05,236.1c-13.75,7.72-20.9,23.46-17.66,38.89h-53.83c2.6-11.17-.46-22.9-8.18-31.37-7.7-8.2-18.65-12.55-29.87-11.87-1.39-9.89.6-19.97,5.65-28.59.9-1.04,2.21-1.62,3.58-1.59,13.43-.83,26.91.62,39.86,4.28,13.44,4.66,26.96,9.34,40.77,12.63,9.19,2.03,16.66,8.72,19.68,17.64"/><path id="Path_11" class="cls-1" d="m192.8,151.16c-3.03,9.6-5.99,18.7-8.69,27.89-.25,2.05-.18,4.14.21,6.17.26,1.27.31,2.58.15,3.87-2.16,7.07-4.51,14.07-6.72,20.89-.77.21-1.21.49-1.52.38-13.1-3.91-13.25-3.96-8.8-16.97,1.61-4.71,1.92-9.68,7.25-13.35,3.42-2.34,3.75-9.21,5.34-14.1,1.8-6.63,6.52-12.08,12.83-14.8"/></g></g></g></g></svg>