<svg xmlns="http://www.w3.org/2000/svg" width="50" height="50" viewBox="0 0 30 30"><path d="M15.14 29.98c-3.984.067-7.62-.5-11.085-2.09-1.121-.515-2.176-1.163-3.02-2.14-1.336-1.52-1.344-3.297 0-4.8 1.438-1.602 3.281-2.376 5.2-2.997.843-.273 1.699-.488 2.554-.68.504-.109.469-.312.238-.68-.402-.636-.789-1.273-1.18-1.91C4.196 8.84 7.372 1.017 13.864.094c5.051-.718 8.992 2.9 9.739 7.634.386 2.453.011 4.855-1.38 6.957-.425.636-.8 1.316-1.218 1.964-.227.356-.195.543.242.641 1.23.254 2.453.582 3.64 1.055 1.41.558 2.743 1.234 3.852 2.347 1.688 1.68 1.637 3.836-.117 5.438-1.808 1.652-3.988 2.453-6.242 3.023-2.469.61-4.945.938-7.238.828Zm.024-1.37c.879-.258 2.106-.083 3.309-.243 2.554-.324 5.054-.84 7.379-2.074.82-.434 1.59-.938 2.191-1.668.68-.828.695-1.723.016-2.55a5.917 5.917 0 0 0-1.364-1.196c-1.851-1.152-3.863-1.79-5.965-2.207-.71-.137-1.062.066-1.421.691-1.188 2.004-2.422 3.957-3.641 5.938-.516.828-.766.84-1.273.015-1.258-2.046-2.54-4.097-3.778-6.171-.305-.516-.668-.625-1.16-.528-1.383.258-2.742.61-4.055 1.18-1.207.527-2.402 1.07-3.32 2.129-.91 1.015-.91 1.87.008 2.875.617.664 1.351 1.137 2.129 1.543 3.363 1.75 6.98 2.105 10.945 2.265Zm-.152-23.16c-2.203-.22-3.715 2.062-3.703 3.862.03 2.09 1.726 4.016 3.625 3.973 2.171-.039 3.726-1.976 3.718-4.082 0-1.719-1.625-4.012-3.64-3.754Zm0 0" style="stroke:none;fill-rule:nonzero;fill:#009640;fill-opacity:1"/></svg>