<svg xmlns="http://www.w3.org/2000/svg" xml:space="preserve" id="Layer_1" width="50" height="50" x="0" y="0" style="enable-background:new 0 0 1190.6 841.9" version="1.1" viewBox="459.45 263.8 271.38 311.27"><style>.st0{fill:#1d71b8}</style><path d="M670.8 389.3c2.6-6.9 5.2-13.9 7.9-20.8 1.1-2.8 1.6-6.1 3.4-8.2 1.7-2 4.8-3.9 7.2-3.8 3.5.1 5.9 3 5.8 6.9-.1 1.6-.5 3.3-1 4.8-7.5 20.2-14.9 40.5-22.6 60.7-.8 2.2-2.6 4.7-4.6 5.4-2.2.8-5.7.4-7.3-1-1.6-1.3-2.5-4.9-2-7 1.9-7 4.7-13.7 7.5-21.9-9.3 7.7-19.8 6.7-29.6 8.4-13.3 2.3-26.7 3.8-39.9 5.9-7.5 1.2-14.6 1.1-20.8-3.8-.4.4-.8.8-.8.9 2.9 7.3-.9 11.8-5.9 16.6-14.8 14.2-29 28.9-43.5 43.4-1.1 1.1-2.4 2.2-4.2 3.9-2.8-14-5.4-27-8.1-40.1-3.9-19.4-8-38.7-11.5-58.2-3.8-20.9 11.7-38.3 33-37.8 8 .2 14.6 3.5 21 8.1 12.8 9.2 26 17.9 39.2 26.5 1.9 1.2 5.2.9 7.7.5 15.3-2 30.6-4.3 45.9-6.5 9.6-1.4 18.6 4.7 21.2 14.2.3.9.6 1.8.9 2.8.3-.1.7 0 1.1.1z" class="st0"/><path d="M527.6 493.5c17.2-17.3 33.9-34 50.8-51 .3.7.9 1.5 1.1 2.3 1.6 7.5 1.6 7.5 9.4 7.5h37c6.5 0 11.9 2.2 16.6 6.8 26.9 27 54 53.9 80.9 80.9 8.3 8.3 9.7 18.1 3.9 26.6-7.1 10.4-20.7 11.4-30.3 2-14.1-13.9-28-28-42.1-42.1-6.2-6.2-12.3-12.7-18.8-18.6-2.1-1.9-5.4-3.3-8.2-3.3-25.3-.3-50.6-.1-76-.2-9.8 0-18-3.6-24.3-10.9z" class="st0"/><path d="M508.4 492.8c3.7-4.2 7.4-8.4 11.3-12.9 2.6 4.9 4.7 8.8 7.2 13.7-3.8 3.3-7.9 6.8-12.4 10.7 8.6 8.9 17.9 14.1 29.2 14.4 17.5.6 35 .6 52.4 1 10.4.3 16.9 8.8 14.6 18.7-1.4 5.8-6.7 11.2-12.6 11.2-21 0-42.1 1.2-62.8-1.1-32.6-3.6-57-28.8-62.6-60.9-4.1-23.6-8.5-47.1-12.8-70.6-2.4-13 5-22.4 16.6-21.2 7.2.7 12.3 6.1 14.1 15.3 2.4 12.6 4.7 25.2 7.1 37.8 2.2 11.9 4.5 23.9 6.8 35.8.5 2.4 1.4 4.7 2.1 7.1.6.4 1.2.7 1.8 1zM493.3 299.9c-.3-19.7 15.5-35.8 35.4-36.1 20.4-.3 36.7 15.5 37 35.8.2 20.1-15.9 36.5-36.1 36.7-20.3.1-36-15.6-36.3-36.4zM469.8 334.8c2.8-2.7 5.9-5.7 8.6-8.3 8 8.1 16.2 16.3 24.5 24.6-1.8 3.1-4.2 7-6.2 10.5-8.8-8.7-17.6-17.5-26.9-26.8z" class="st0"/></svg>