<svg xmlns="http://www.w3.org/2000/svg" xml:space="preserve" id="Layer_1" width="50" height="50" x="0" y="0" style="enable-background:new 0 0 1190.6 841.9" version="1.1" viewBox="473.5 277.9 228.1 228.3"><style>.st0{fill:#be1622}</style><path d="M587 506.2c-62.7-.3-113.8-51.9-113.5-114.7.3-62.7 51.8-113.9 114.6-113.6 62.7.2 113.8 51.9 113.5 114.7-.2 62.7-51.8 113.8-114.6 113.6zm4.3-17.7c52.9-1.1 98.6-48.6 92.2-108-4.8-44.5-46.6-91.1-107.9-84.3-44.8 4.9-89.9 47-84 107.5 4.7 47.7 51.2 88.4 99.7 84.8z" class="st0"/><path d="M642.3 443c-2.3.8-4.9 2.7-7 2.2-3.1-.7-7.1-2.3-8.5-4.8-7-11.9-16.8-19.1-30.3-21.4-17.2-2.9-34.1 4.8-42.8 20-2.4 4.3-4.8 8.9-10.3 6-6.2-3.3-2.9-8.5-.5-12.6 10.8-18.2 27.2-26.7 48.1-26.3 20.6.4 36.1 9.7 46.3 27.7 1 1.8 1.5 3.9 2.3 5.9l2.7 3.3zM618.6 373.9c-7.3-.1-12.7-5.4-12.7-12.7-.1-7.2 6.2-13.5 13.3-13.4 7.1.2 13 6.6 12.7 13.9-.4 7.2-6 12.3-13.3 12.2zM558.8 347.9c7.2.4 12.8 6.8 12.3 14.2-.5 7.3-6 12.2-13.4 11.9-7.1-.3-12.6-6-12.5-13 .1-7.3 6.6-13.5 13.6-13.1z" class="st0"/></svg>