<?xml version="1.0" encoding="UTF-8" standalone="no" ?>
<!DOCTYPE svg PUBLIC "-//W3C//DTD SVG 1.1//EN" "http://www.w3.org/Graphics/SVG/1.1/DTD/svg11.dtd">
<svg xmlns="http://www.w3.org/2000/svg" xmlns:xlink="http://www.w3.org/1999/xlink" version="1.1" width="1080" height="1080" viewBox="0 0 1080 1080" xml:space="preserve">
<desc>Created with Fabric.js 5.2.4</desc>
<defs>
</defs>
<g transform="matrix(1 0 0 1 540 540)" id="c64c324e-c10e-4433-a3b6-5cb6cf45719c"  >
<rect style="stroke: none; stroke-width: 1; stroke-dasharray: none; stroke-linecap: butt; stroke-dashoffset: 0; stroke-linejoin: miter; stroke-miterlimit: 4; fill: #424242; fill-rule: nonzero; opacity: 1; visibility: hidden;" vector-effect="non-scaling-stroke"  x="-540" y="-540" rx="0" ry="0" width="1080" height="1080" />
</g>
<g transform="matrix(1 0 0 1 540 540)" id="63866650-91a8-4561-8eed-fd09e7212df2"  >
</g>
<g transform="matrix(1 0 0 1 540 540)" id="b43182ae-75b8-4624-991a-ff9df98e8a53"  >
<path style="stroke: rgb(0,0,0); stroke-width: 0; stroke-dasharray: none; stroke-linecap: butt; stroke-dashoffset: 0; stroke-linejoin: miter; stroke-miterlimit: 4; fill: #424242; fill-rule: nonzero; opacity: 1;" vector-effect="non-scaling-stroke"  transform=" translate(-256, -255.99)" d="M 307 34.8 C 295.5 39.9 288 51.4 288 64 L 288 128 L 176 128 C 78.8 128 0 206.8 0 304 C 0 417.3 81.5 467.9 100.2 478.1 C 102.7 479.5 105.5 480 108.3 480 C 119.2 480 128 471.1 128 460.3 C 128 452.8 123.7 445.90000000000003 118.2 440.8 C 108.8 431.9 96 414.4 96 384 C 96 331 139 288 192 288 L 288 288 L 288 352 C 288 364.6 295.4 376.1 307 381.2 C 318.6 386.29999999999995 332 384.2 341.4 375.8 L 501.4 231.8 C 508.09999999999997 225.70000000000002 512 217.10000000000002 512 208 C 512 198.89999999999998 508.2 190.3 501.4 184.2 L 341.4 40.19999999999999 C 332 31.69999999999999 318.5 29.599999999999987 307 34.79999999999999 z" stroke-linecap="round" />
</g>
</svg>